<mxfile host="app.diagrams.net" modified="2023-09-05T08:16:58.209Z" agent="Mozilla/5.0 (Windows NT 10.0; Win64; x64) AppleWebKit/537.36 (KHTML, like Gecko) Chrome/116.0.0.0 Safari/537.36 Edg/116.0.1938.69" etag="blS2mUgBEn4E8ZIblsJ7" version="21.7.2" type="github" pages="2">
  <diagram name="第 1 页" id="4_ELMzSKqINDhzLIVQbl">
    <mxGraphModel dx="797" dy="1697" grid="1" gridSize="10" guides="1" tooltips="1" connect="1" arrows="1" fold="1" page="1" pageScale="1" pageWidth="827" pageHeight="1169" math="0" shadow="0">
      <root>
        <mxCell id="0" />
        <mxCell id="1" parent="0" />
        <mxCell id="Yf35to-d7aEPNYtz0MsX-3" value="校内汽车管理系统" style="rounded=0;whiteSpace=wrap;html=1;" parent="1" vertex="1">
          <mxGeometry x="330" y="-1169" width="190" height="30" as="geometry" />
        </mxCell>
        <mxCell id="2PigasAM_Io8fCPjEmJM-3" value="" style="endArrow=classic;html=1;rounded=0;exitX=0.5;exitY=1;exitDx=0;exitDy=0;entryX=0.5;entryY=0;entryDx=0;entryDy=0;" edge="1" parent="1" source="Yf35to-d7aEPNYtz0MsX-3" target="2PigasAM_Io8fCPjEmJM-7">
          <mxGeometry width="50" height="50" relative="1" as="geometry">
            <mxPoint x="440" y="-1020" as="sourcePoint" />
            <mxPoint x="425" y="-1080" as="targetPoint" />
            <Array as="points">
              <mxPoint x="425" y="-1100" />
              <mxPoint x="295" y="-1100" />
            </Array>
          </mxGeometry>
        </mxCell>
        <mxCell id="2PigasAM_Io8fCPjEmJM-4" value="" style="endArrow=none;html=1;rounded=0;" edge="1" parent="1">
          <mxGeometry width="50" height="50" relative="1" as="geometry">
            <mxPoint x="80" y="-1100" as="sourcePoint" />
            <mxPoint x="760" y="-1100" as="targetPoint" />
          </mxGeometry>
        </mxCell>
        <mxCell id="2PigasAM_Io8fCPjEmJM-5" value="" style="endArrow=classic;html=1;rounded=0;" edge="1" parent="1">
          <mxGeometry width="50" height="50" relative="1" as="geometry">
            <mxPoint x="80" y="-1100" as="sourcePoint" />
            <mxPoint x="80" y="-1070" as="targetPoint" />
          </mxGeometry>
        </mxCell>
        <mxCell id="2PigasAM_Io8fCPjEmJM-6" value="超级管理员" style="rounded=0;whiteSpace=wrap;html=1;" vertex="1" parent="1">
          <mxGeometry x="30" y="-1070" width="110" height="30" as="geometry" />
        </mxCell>
        <mxCell id="2PigasAM_Io8fCPjEmJM-7" value="管理员" style="rounded=0;whiteSpace=wrap;html=1;" vertex="1" parent="1">
          <mxGeometry x="240" y="-1070" width="110" height="30" as="geometry" />
        </mxCell>
        <mxCell id="2PigasAM_Io8fCPjEmJM-9" value="校内人员" style="rounded=0;whiteSpace=wrap;html=1;" vertex="1" parent="1">
          <mxGeometry x="480" y="-1070" width="110" height="30" as="geometry" />
        </mxCell>
        <mxCell id="2PigasAM_Io8fCPjEmJM-10" value="" style="endArrow=classic;html=1;rounded=0;entryX=0.5;entryY=0;entryDx=0;entryDy=0;" edge="1" parent="1" target="2PigasAM_Io8fCPjEmJM-9">
          <mxGeometry width="50" height="50" relative="1" as="geometry">
            <mxPoint x="430" y="-1100" as="sourcePoint" />
            <mxPoint x="480" y="-1150" as="targetPoint" />
            <Array as="points">
              <mxPoint x="535" y="-1100" />
            </Array>
          </mxGeometry>
        </mxCell>
        <mxCell id="2PigasAM_Io8fCPjEmJM-11" value="访客" style="rounded=0;whiteSpace=wrap;html=1;" vertex="1" parent="1">
          <mxGeometry x="700" y="-1070" width="110" height="30" as="geometry" />
        </mxCell>
        <mxCell id="2PigasAM_Io8fCPjEmJM-12" value="" style="endArrow=classic;html=1;rounded=0;" edge="1" parent="1">
          <mxGeometry width="50" height="50" relative="1" as="geometry">
            <mxPoint x="760" y="-1100" as="sourcePoint" />
            <mxPoint x="760" y="-1070" as="targetPoint" />
          </mxGeometry>
        </mxCell>
        <mxCell id="2PigasAM_Io8fCPjEmJM-13" value="" style="endArrow=none;html=1;rounded=0;" edge="1" parent="1">
          <mxGeometry width="50" height="50" relative="1" as="geometry">
            <mxPoint x="80" y="-1030" as="sourcePoint" />
            <mxPoint x="80" y="-1040" as="targetPoint" />
          </mxGeometry>
        </mxCell>
        <mxCell id="2PigasAM_Io8fCPjEmJM-14" value="" style="endArrow=none;html=1;rounded=0;" edge="1" parent="1">
          <mxGeometry width="50" height="50" relative="1" as="geometry">
            <mxPoint x="294.65999999999997" y="-1020" as="sourcePoint" />
            <mxPoint x="294.65999999999997" y="-1040" as="targetPoint" />
          </mxGeometry>
        </mxCell>
        <mxCell id="2PigasAM_Io8fCPjEmJM-15" value="" style="endArrow=none;html=1;rounded=0;" edge="1" parent="1">
          <mxGeometry width="50" height="50" relative="1" as="geometry">
            <mxPoint x="534.6600000000001" y="-1020" as="sourcePoint" />
            <mxPoint x="534.6600000000001" y="-1040" as="targetPoint" />
          </mxGeometry>
        </mxCell>
        <mxCell id="2PigasAM_Io8fCPjEmJM-16" value="" style="endArrow=none;html=1;rounded=0;" edge="1" parent="1">
          <mxGeometry width="50" height="50" relative="1" as="geometry">
            <mxPoint x="760" y="-1020" as="sourcePoint" />
            <mxPoint x="760" y="-1040" as="targetPoint" />
          </mxGeometry>
        </mxCell>
        <mxCell id="2PigasAM_Io8fCPjEmJM-17" value="" style="endArrow=classic;html=1;rounded=0;" edge="1" parent="1">
          <mxGeometry width="50" height="50" relative="1" as="geometry">
            <mxPoint x="80" y="-1030" as="sourcePoint" />
            <mxPoint x="20" y="-1010" as="targetPoint" />
            <Array as="points">
              <mxPoint x="20" y="-1030" />
            </Array>
          </mxGeometry>
        </mxCell>
        <mxCell id="2PigasAM_Io8fCPjEmJM-18" value="设置访问时间" style="rounded=0;whiteSpace=wrap;html=1;" vertex="1" parent="1">
          <mxGeometry x="50" y="-1010" width="20" height="120" as="geometry" />
        </mxCell>
        <mxCell id="2PigasAM_Io8fCPjEmJM-20" value="登录" style="rounded=0;whiteSpace=wrap;html=1;" vertex="1" parent="1">
          <mxGeometry x="10" y="-1010" width="20" height="120" as="geometry" />
        </mxCell>
      </root>
    </mxGraphModel>
  </diagram>
  <diagram id="puZlM1Vh7-m9Hg_kJxcA" name="第 2 页">
    <mxGraphModel dx="1004" dy="3965" grid="1" gridSize="13" guides="1" tooltips="1" connect="1" arrows="1" fold="1" page="1" pageScale="1" pageWidth="4681" pageHeight="3300" math="0" shadow="0">
      <root>
        <mxCell id="0" />
        <mxCell id="1" parent="0" />
        <mxCell id="AD4vQQB8XXNmOcseO8kc-21" style="edgeStyle=orthogonalEdgeStyle;rounded=0;orthogonalLoop=1;jettySize=auto;html=1;exitX=0.5;exitY=1;exitDx=0;exitDy=0;entryX=0.5;entryY=0;entryDx=0;entryDy=0;" edge="1" parent="1" source="AD4vQQB8XXNmOcseO8kc-1" target="AD4vQQB8XXNmOcseO8kc-6">
          <mxGeometry relative="1" as="geometry" />
        </mxCell>
        <mxCell id="AD4vQQB8XXNmOcseO8kc-1" value="校内汽车管理系统" style="rounded=0;whiteSpace=wrap;html=1;" vertex="1" parent="1">
          <mxGeometry x="1243" y="-1807" width="190" height="30" as="geometry" />
        </mxCell>
        <mxCell id="AD4vQQB8XXNmOcseO8kc-5" value="超级管理员" style="rounded=0;whiteSpace=wrap;html=1;" vertex="1" parent="1">
          <mxGeometry x="813" y="-1708" width="110" height="30" as="geometry" />
        </mxCell>
        <mxCell id="AD4vQQB8XXNmOcseO8kc-6" value="管理员" style="rounded=0;whiteSpace=wrap;html=1;" vertex="1" parent="1">
          <mxGeometry x="1153" y="-1708" width="110" height="30" as="geometry" />
        </mxCell>
        <mxCell id="AD4vQQB8XXNmOcseO8kc-7" value="校内人员" style="rounded=0;whiteSpace=wrap;html=1;" vertex="1" parent="1">
          <mxGeometry x="1393" y="-1708" width="110" height="30" as="geometry" />
        </mxCell>
        <mxCell id="AD4vQQB8XXNmOcseO8kc-9" value="访客" style="rounded=0;whiteSpace=wrap;html=1;" vertex="1" parent="1">
          <mxGeometry x="1613" y="-1708" width="110" height="30" as="geometry" />
        </mxCell>
        <mxCell id="AD4vQQB8XXNmOcseO8kc-11" value="" style="endArrow=none;html=1;rounded=0;" edge="1" parent="1">
          <mxGeometry width="50" height="50" relative="1" as="geometry">
            <mxPoint x="890" y="-1656" as="sourcePoint" />
            <mxPoint x="890" y="-1678" as="targetPoint" />
          </mxGeometry>
        </mxCell>
        <mxCell id="AD4vQQB8XXNmOcseO8kc-12" value="" style="endArrow=none;html=1;rounded=0;" edge="1" parent="1">
          <mxGeometry width="50" height="50" relative="1" as="geometry">
            <mxPoint x="1207.6599999999999" y="-1658" as="sourcePoint" />
            <mxPoint x="1207.6599999999999" y="-1678" as="targetPoint" />
          </mxGeometry>
        </mxCell>
        <mxCell id="AD4vQQB8XXNmOcseO8kc-13" value="" style="endArrow=none;html=1;rounded=0;" edge="1" parent="1">
          <mxGeometry width="50" height="50" relative="1" as="geometry">
            <mxPoint x="1447.66" y="-1658" as="sourcePoint" />
            <mxPoint x="1447.66" y="-1678" as="targetPoint" />
          </mxGeometry>
        </mxCell>
        <mxCell id="AD4vQQB8XXNmOcseO8kc-14" value="" style="endArrow=none;html=1;rounded=0;" edge="1" parent="1">
          <mxGeometry width="50" height="50" relative="1" as="geometry">
            <mxPoint x="1673" y="-1658" as="sourcePoint" />
            <mxPoint x="1673" y="-1678" as="targetPoint" />
          </mxGeometry>
        </mxCell>
        <mxCell id="AD4vQQB8XXNmOcseO8kc-15" value="" style="endArrow=classic;html=1;rounded=0;entryX=0.5;entryY=0;entryDx=0;entryDy=0;" edge="1" parent="1" target="AD4vQQB8XXNmOcseO8kc-17">
          <mxGeometry width="50" height="50" relative="1" as="geometry">
            <mxPoint x="897" y="-1655" as="sourcePoint" />
            <mxPoint x="829" y="-1635" as="targetPoint" />
            <Array as="points">
              <mxPoint x="793" y="-1655" />
            </Array>
          </mxGeometry>
        </mxCell>
        <mxCell id="AD4vQQB8XXNmOcseO8kc-16" value="&lt;font style=&quot;font-size: 14px;&quot;&gt;设置访问时间&lt;/font&gt;" style="rounded=0;whiteSpace=wrap;html=1;" vertex="1" parent="1">
          <mxGeometry x="820" y="-1612" width="25" height="260" as="geometry" />
        </mxCell>
        <mxCell id="AD4vQQB8XXNmOcseO8kc-17" value="&lt;p style=&quot;line-height: 120%;&quot;&gt;&lt;font style=&quot;font-size: 15px;&quot;&gt;登录&lt;/font&gt;&lt;/p&gt;" style="rounded=0;whiteSpace=wrap;html=1;" vertex="1" parent="1">
          <mxGeometry x="780" y="-1612" width="26" height="260" as="geometry" />
        </mxCell>
        <mxCell id="AD4vQQB8XXNmOcseO8kc-24" value="" style="endArrow=classic;html=1;rounded=0;entryX=0.5;entryY=0;entryDx=0;entryDy=0;" edge="1" parent="1" target="AD4vQQB8XXNmOcseO8kc-5">
          <mxGeometry width="50" height="50" relative="1" as="geometry">
            <mxPoint x="1209" y="-1742" as="sourcePoint" />
            <mxPoint x="1155" y="-1833" as="targetPoint" />
            <Array as="points">
              <mxPoint x="868" y="-1742" />
            </Array>
          </mxGeometry>
        </mxCell>
        <mxCell id="AD4vQQB8XXNmOcseO8kc-25" value="" style="endArrow=classic;html=1;rounded=0;entryX=0.5;entryY=0;entryDx=0;entryDy=0;" edge="1" parent="1" target="AD4vQQB8XXNmOcseO8kc-7">
          <mxGeometry width="50" height="50" relative="1" as="geometry">
            <mxPoint x="1339" y="-1742" as="sourcePoint" />
            <mxPoint x="1508" y="-1794" as="targetPoint" />
            <Array as="points">
              <mxPoint x="1448" y="-1742" />
            </Array>
          </mxGeometry>
        </mxCell>
        <mxCell id="AD4vQQB8XXNmOcseO8kc-26" value="" style="endArrow=classic;html=1;rounded=0;entryX=0.5;entryY=0;entryDx=0;entryDy=0;" edge="1" parent="1" target="AD4vQQB8XXNmOcseO8kc-9">
          <mxGeometry width="50" height="50" relative="1" as="geometry">
            <mxPoint x="1443" y="-1742" as="sourcePoint" />
            <mxPoint x="1571" y="-1794" as="targetPoint" />
            <Array as="points">
              <mxPoint x="1668" y="-1742" />
            </Array>
          </mxGeometry>
        </mxCell>
        <mxCell id="AD4vQQB8XXNmOcseO8kc-30" value="&lt;font style=&quot;font-size: 14px;&quot;&gt;增加校内车辆信息&lt;/font&gt;" style="rounded=0;whiteSpace=wrap;html=1;" vertex="1" parent="1">
          <mxGeometry x="871" y="-1612" width="19" height="260" as="geometry" />
        </mxCell>
        <mxCell id="AD4vQQB8XXNmOcseO8kc-34" value="&lt;font style=&quot;font-size: 14px;&quot;&gt;删除校内车辆信息&lt;/font&gt;" style="rounded=0;whiteSpace=wrap;html=1;" vertex="1" parent="1">
          <mxGeometry x="904" y="-1612" width="19" height="260" as="geometry" />
        </mxCell>
        <mxCell id="AD4vQQB8XXNmOcseO8kc-35" value="&lt;font style=&quot;font-size: 14px;&quot;&gt;修改校内车辆信息&lt;/font&gt;" style="rounded=0;whiteSpace=wrap;html=1;" vertex="1" parent="1">
          <mxGeometry x="930" y="-1612" width="19" height="260" as="geometry" />
        </mxCell>
        <mxCell id="AD4vQQB8XXNmOcseO8kc-36" value="&lt;font style=&quot;font-size: 14px;&quot;&gt;查询校内车辆信息&lt;/font&gt;" style="rounded=0;whiteSpace=wrap;html=1;" vertex="1" parent="1">
          <mxGeometry x="962" y="-1612" width="19" height="260" as="geometry" />
        </mxCell>
        <mxCell id="AD4vQQB8XXNmOcseO8kc-44" value="" style="endArrow=classic;html=1;rounded=0;entryX=0.5;entryY=0;entryDx=0;entryDy=0;" edge="1" parent="1">
          <mxGeometry width="50" height="50" relative="1" as="geometry">
            <mxPoint x="932.5" y="-1655" as="sourcePoint" />
            <mxPoint x="828.5" y="-1612" as="targetPoint" />
            <Array as="points">
              <mxPoint x="828.5" y="-1655" />
            </Array>
          </mxGeometry>
        </mxCell>
        <mxCell id="AD4vQQB8XXNmOcseO8kc-45" value="" style="endArrow=classic;html=1;rounded=0;entryX=0.5;entryY=0;entryDx=0;entryDy=0;" edge="1" parent="1">
          <mxGeometry width="50" height="50" relative="1" as="geometry">
            <mxPoint x="936" y="-1655" as="sourcePoint" />
            <mxPoint x="877" y="-1612" as="targetPoint" />
            <Array as="points">
              <mxPoint x="877" y="-1655" />
            </Array>
          </mxGeometry>
        </mxCell>
        <mxCell id="AD4vQQB8XXNmOcseO8kc-46" value="" style="endArrow=classic;html=1;rounded=0;entryX=0.5;entryY=0;entryDx=0;entryDy=0;" edge="1" parent="1">
          <mxGeometry width="50" height="50" relative="1" as="geometry">
            <mxPoint x="969" y="-1655" as="sourcePoint" />
            <mxPoint x="910" y="-1612" as="targetPoint" />
            <Array as="points">
              <mxPoint x="910" y="-1655" />
            </Array>
          </mxGeometry>
        </mxCell>
        <mxCell id="AD4vQQB8XXNmOcseO8kc-48" value="" style="endArrow=classic;html=1;rounded=0;entryX=0.5;entryY=0;entryDx=0;entryDy=0;" edge="1" parent="1">
          <mxGeometry width="50" height="50" relative="1" as="geometry">
            <mxPoint x="975" y="-1655" as="sourcePoint" />
            <mxPoint x="942" y="-1612" as="targetPoint" />
            <Array as="points">
              <mxPoint x="942" y="-1655" />
            </Array>
          </mxGeometry>
        </mxCell>
        <mxCell id="AD4vQQB8XXNmOcseO8kc-50" value="" style="endArrow=classic;html=1;rounded=0;entryX=0.5;entryY=0;entryDx=0;entryDy=0;" edge="1" parent="1">
          <mxGeometry width="50" height="50" relative="1" as="geometry">
            <mxPoint x="949" y="-1655" as="sourcePoint" />
            <mxPoint x="975" y="-1612" as="targetPoint" />
            <Array as="points">
              <mxPoint x="975" y="-1655" />
            </Array>
          </mxGeometry>
        </mxCell>
        <mxCell id="AD4vQQB8XXNmOcseO8kc-52" value="" style="endArrow=classic;html=1;rounded=0;entryX=0.5;entryY=0;entryDx=0;entryDy=0;" edge="1" parent="1">
          <mxGeometry width="50" height="50" relative="1" as="geometry">
            <mxPoint x="975" y="-1655" as="sourcePoint" />
            <mxPoint x="1014" y="-1612" as="targetPoint" />
            <Array as="points">
              <mxPoint x="1014" y="-1655" />
            </Array>
          </mxGeometry>
        </mxCell>
        <mxCell id="AD4vQQB8XXNmOcseO8kc-53" value="&lt;span style=&quot;font-size: 14px;&quot;&gt;查询车辆出入记录&lt;/span&gt;" style="rounded=0;whiteSpace=wrap;html=1;" vertex="1" parent="1">
          <mxGeometry x="1001" y="-1612" width="19" height="260" as="geometry" />
        </mxCell>
      </root>
    </mxGraphModel>
  </diagram>
</mxfile>
